<svg width="32" height="32" viewBox="0 0 32 32" fill="none" xmlns="http://www.w3.org/2000/svg">
<path d="M15.6561 31.553C7.1059 31.553 0.156128 24.6032 0.156128 16.053C0.156128 7.50275 7.1059 0.552979 15.6561 0.552979C24.2064 0.552979 31.1561 7.50275 31.1561 16.053C31.1561 24.6032 24.2064 31.553 15.6561 31.553ZM15.6561 2.71577C8.30264 2.71577 2.31892 8.69949 2.31892 16.053C2.31892 23.4065 8.30264 29.3902 15.6561 29.3902C23.0096 29.3902 28.9933 23.4065 28.9933 16.053C28.9933 8.69949 23.0096 2.71577 15.6561 2.71577Z" fill="#F244A4"/>
<path d="M13.6079 21.2152C13.3195 21.2152 13.0456 21.0998 12.8437 20.8979L8.76319 16.8175C8.34505 16.3993 8.34505 15.7072 8.76319 15.2891C9.18133 14.871 9.87342 14.871 10.2916 15.2891L13.6079 18.6054L21.0191 11.1942C21.4372 10.7761 22.1293 10.7761 22.5474 11.1942C22.9656 11.6124 22.9656 12.3045 22.5474 12.7226L14.3721 20.8979C14.1702 21.0998 13.8963 21.2152 13.6079 21.2152Z" fill="#F244A4"/>
</svg>
