<svg width="49" height="48" viewBox="0 0 49 48" fill="none" xmlns="http://www.w3.org/2000/svg">
<path d="M46.5966 2.99131C44.9166 1.14704 42.4199 0 39.6666 0C37.0533 0 34.6733 1.03459 32.9699 2.72141C31.9899 3.68853 31.2433 4.85806 30.7999 6.16254C30.4966 7.06218 30.3333 8.00681 30.3333 8.99641C30.3333 10.6832 30.8233 12.2801 31.6866 13.6296C32.1533 14.3943 32.7599 15.0915 33.4599 15.6762C35.0933 17.1157 37.2633 17.9928 39.6666 17.9928C40.6933 17.9928 41.6733 17.8354 42.5833 17.5205C44.7299 16.8683 46.5266 15.4513 47.6466 13.6296C48.1366 12.8649 48.5099 11.9877 48.7199 11.0881C48.9066 10.4133 48.9999 9.71612 48.9999 8.99641C48.9999 6.70233 48.0899 4.58817 46.5966 2.99131ZM43.1433 10.6383H41.4166V12.3926C41.4166 13.3147 40.6233 14.0794 39.6666 14.0794C38.7099 14.0794 37.9166 13.3147 37.9166 12.3926V10.6383H36.1899C35.2333 10.6383 34.4399 9.87356 34.4399 8.95143C34.4399 8.0293 35.2333 7.2646 36.1899 7.2646H37.9166V5.66774C37.9166 4.74561 38.7099 3.98091 39.6666 3.98091C40.6233 3.98091 41.4166 4.74561 41.4166 5.66774V7.2646H43.1433C44.0999 7.2646 44.8933 8.0293 44.8933 8.95143C44.8933 9.87356 44.1233 10.6383 43.1433 10.6383Z" fill="#8C8B8B"/>
<path d="M46.6667 24.7401C46.6667 21.7938 46.0833 18.9599 44.9867 16.3735C44.2633 16.8683 43.4467 17.2506 42.5833 17.5205C42.3267 17.6105 42.07 17.678 41.79 17.7454C42.6767 19.9046 43.1667 22.2661 43.1667 24.7401C43.1667 29.9581 40.9733 34.7037 37.4267 38.1673C36.75 37.3351 35.8867 36.5704 34.86 35.9182C28.5367 31.8248 18.1767 31.8248 11.8067 35.9182C10.78 36.5704 9.94 37.3351 9.24 38.1673C5.69333 34.7037 3.5 29.9581 3.5 24.7401C3.5 14.1919 12.39 5.62277 23.3333 5.62277C25.8767 5.62277 28.3267 6.09508 30.5667 6.94974C30.6367 6.67985 30.7067 6.43245 30.8 6.16255C31.08 5.33039 31.4767 4.56569 32.0133 3.86847C29.33 2.81139 26.39 2.24911 23.3333 2.24911C10.4767 2.24911 0 12.3476 0 24.7401C0 31.2625 2.91667 37.1327 7.53667 41.2486C7.53667 41.271 7.53667 41.271 7.51333 41.2935C7.74667 41.5185 8.02667 41.6984 8.26 41.9008C8.4 42.0133 8.51667 42.1257 8.65667 42.2157C9.07667 42.553 9.54333 42.8679 9.98667 43.1828C10.15 43.2952 10.29 43.3852 10.4533 43.4977C10.8967 43.79 11.3633 44.0599 11.8533 44.3073C12.0167 44.3973 12.2033 44.5098 12.3667 44.5997C12.8333 44.8471 13.3233 45.072 13.8367 45.2744C14.0233 45.3644 14.21 45.4544 14.3967 45.5219C14.91 45.7243 15.4233 45.9042 15.9367 46.0616C16.1233 46.1291 16.31 46.1966 16.4967 46.2416C17.0567 46.399 17.6167 46.534 18.1767 46.6689C18.34 46.7139 18.5033 46.7589 18.69 46.7813C19.3433 46.9163 19.9967 47.0063 20.6733 47.0737C20.7667 47.0737 20.86 47.0962 20.9533 47.1187C21.7467 47.1862 22.54 47.2312 23.3333 47.2312C24.1267 47.2312 24.92 47.1862 25.69 47.1187C25.7833 47.1187 25.8767 47.0962 25.97 47.0737C26.6467 47.0063 27.3 46.9163 27.9533 46.7813C28.1167 46.7589 28.28 46.6914 28.4667 46.6689C29.0267 46.534 29.61 46.4215 30.1467 46.2416C30.3333 46.1741 30.52 46.1066 30.7067 46.0616C31.22 45.8817 31.7567 45.7243 32.2467 45.5219C32.4333 45.4544 32.62 45.3644 32.8067 45.2744C33.2967 45.072 33.7867 44.8471 34.2767 44.5997C34.4633 44.5098 34.6267 44.3973 34.79 44.3073C35.2567 44.0374 35.7233 43.79 36.19 43.4977C36.3533 43.4077 36.4933 43.2952 36.6567 43.1828C37.1233 42.8679 37.5667 42.553 37.9867 42.2157C38.1267 42.1032 38.2433 41.9908 38.3833 41.9008C38.64 41.6984 38.8967 41.496 39.13 41.2935C39.13 41.271 39.13 41.271 39.1067 41.2486C43.75 37.1327 46.6667 31.2625 46.6667 24.7401Z" fill="#8C8B8B"/>
<path d="M23.3333 13.3365C18.5033 13.3365 14.5833 17.115 14.5833 21.7706C14.5833 26.3363 18.2933 30.0473 23.2166 30.1823H23.4266H23.5899H23.6366C28.3499 30.0249 32.0599 26.3363 32.0833 21.7706C32.0833 17.115 28.1633 13.3365 23.3333 13.3365Z" fill="#8C8B8B"/>
</svg>
