<svg width="35" height="35" viewBox="0 0 47 46" fill="none" xmlns="http://www.w3.org/2000/svg">
<path d="M23.5 45C35.9263 45 46 35.1502 46 23C46 10.8497 35.9263 1 23.5 1C11.0736 1 1 10.8497 1 23C1 35.1502 11.0736 45 23.5 45Z" stroke="#8C8B8B" stroke-width="2" stroke-linecap="round" stroke-linejoin="round"/>
<path d="M14.5226 28.5222C14.9276 29.1822 15.4226 29.7982 15.9851 30.3482C20.1251 34.3962 26.8526 34.3962 31.0151 30.3482C32.7026 28.6982 33.6701 26.608 33.9851 24.474" stroke="#8C8B8B" stroke-width="2" stroke-linecap="round" stroke-linejoin="round"/>
<path d="M13.0149 21.5262C13.3299 19.3702 14.2974 17.3021 15.9849 15.6521C20.125 11.6041 26.8525 11.6041 31.015 15.6521C31.6 16.2241 32.0725 16.8401 32.4775 17.4781" stroke="#8C8B8B" stroke-width="2" stroke-linecap="round" stroke-linejoin="round"/>
<path d="M14.0948 34.396V28.522H20.1022" stroke="#8C8B8B" stroke-width="2" stroke-linecap="round" stroke-linejoin="round"/>
<path d="M32.905 11.6041V17.4781H26.8975" stroke="#8C8B8B" stroke-width="2" stroke-linecap="round" stroke-linejoin="round"/>
</svg>
