<svg width="24" height="23" viewBox="0 0 24 23" fill="none" xmlns="http://www.w3.org/2000/svg">
<path d="M14.9868 22.269H8.44708C2.52867 22.269 0 19.866 0 14.2418V8.02718C0 2.40298 2.52867 0 8.44708 0H14.9868C20.9052 0 23.4338 2.40298 23.4338 8.02718V14.2418C23.4338 19.866 20.9052 22.269 14.9868 22.269ZM8.44708 1.55365C3.42243 1.55365 1.63492 3.2523 1.63492 8.02718V14.2418C1.63492 19.0167 3.42243 20.7153 8.44708 20.7153H14.9868C20.0114 20.7153 21.7989 19.0167 21.7989 14.2418V8.02718C21.7989 3.2523 20.0114 1.55365 14.9868 1.55365H8.44708Z" fill="#F244A4"/>
<path d="M11.7172 14.1483C11.5101 14.1483 11.303 14.0758 11.1395 13.9205L7.29193 10.2642C6.97585 9.96386 6.97585 9.46669 7.29193 9.16632C7.60802 8.86597 8.13119 8.86597 8.44728 9.16632L11.7172 12.2736L14.987 9.16632C15.3031 8.86597 15.8263 8.86597 16.1423 9.16632C16.4584 9.46669 16.4584 9.96386 16.1423 10.2642L12.2948 13.9205C12.1313 14.0758 11.9242 14.1483 11.7172 14.1483Z" fill="#F244A4"/>
</svg>
