<svg width="37" height="37" viewBox="0 0 37 37" fill="none" xmlns="http://www.w3.org/2000/svg">
<path d="M24.1697 35.3555H15.1671C14.0981 35.3555 13.1627 35.2898 12.3109 35.1747C11.6261 35.076 11.1417 34.4511 11.2419 33.7769C11.3421 33.1027 11.9602 32.6093 12.6617 32.7244C13.3966 32.8231 14.215 32.8724 15.1504 32.8724H24.1532C30.9846 32.8724 33.4063 30.488 33.4063 23.7622V16.3787C33.4063 15.7044 33.9742 15.1453 34.659 15.1453C35.3438 15.1453 35.9117 15.7044 35.9117 16.3787V23.7622C35.9284 31.8858 32.4041 35.3555 24.1697 35.3555Z" fill="#8C8B8B"/>
<path d="M4.6587 24.6996C3.9739 24.6996 3.40601 24.1405 3.40601 23.4663V16.3951C3.40601 15.7209 3.9739 15.1618 4.6587 15.1618C5.34351 15.1618 5.9114 15.7209 5.9114 16.3951V23.4663C5.9114 24.1405 5.34351 24.6996 4.6587 24.6996Z" fill="#8C8B8B"/>
<path d="M19.6762 18.9111C17.839 18.9111 16.1686 18.204 14.9828 16.9049C13.7969 15.6058 13.2457 13.912 13.4294 12.1031L14.5486 1.1183C14.6154 0.493416 15.1499 0 15.8013 0H23.6014C24.2528 0 24.7873 0.476971 24.8541 1.1183L25.9731 12.1031C26.1569 13.912 25.6057 15.6058 24.4198 16.9049C23.1838 18.204 21.5135 18.9111 19.6762 18.9111ZM16.9036 2.46667L15.9015 12.3498C15.7846 13.4516 16.1186 14.4876 16.8201 15.244C18.2398 16.7898 21.0793 16.7898 22.499 15.244C23.2005 14.4711 23.5346 13.4351 23.4176 12.3498L22.4155 2.46667H16.9036Z" fill="#8C8B8B"/>
<path d="M30.1977 18.9111C26.807 18.9111 23.7839 16.2142 23.4331 12.8924L22.2639 1.36482C22.2305 1.01949 22.3474 0.674222 22.5813 0.411111C22.8151 0.148 23.1492 0 23.5166 0H28.6109C33.5215 0 35.8098 2.02267 36.4946 6.98889L36.9622 11.5605C37.1627 13.5009 36.5614 15.3428 35.2753 16.7406C33.9892 18.1384 32.1853 18.9111 30.1977 18.9111ZM24.9029 2.46667L25.9385 12.6457C26.1556 14.7012 28.1098 16.4444 30.1977 16.4444C31.4671 16.4444 32.6029 15.9677 33.4213 15.0962C34.223 14.2245 34.5905 13.057 34.4736 11.8072L34.0059 7.28497C33.4881 3.56853 32.2688 2.46667 28.6109 2.46667H24.9029Z" fill="#8C8B8B"/>
<path d="M9.05335 18.9111C7.06573 18.9111 5.26188 18.1384 3.97577 16.7406C2.68967 15.3428 2.08836 13.5009 2.28879 11.5605L2.75651 7.03827C3.45802 2.02272 5.74625 0 10.6568 0H15.7511C16.1019 0 16.436 0.148 16.6865 0.411111C16.9203 0.674222 17.0372 1.01949 17.0038 1.36482L15.8346 12.8924C15.4672 16.2142 12.4273 18.9111 9.05335 18.9111ZM10.6401 2.46667C6.98223 2.46667 5.76296 3.55192 5.22847 7.3177L4.77747 11.7907C4.64385 13.0405 5.02802 14.2081 5.82975 15.0796C6.63148 15.9511 7.78394 16.428 9.05335 16.428C11.1579 16.428 13.1121 14.6851 13.3125 12.6294L14.3482 2.45021H10.6401V2.46667Z" fill="#8C8B8B"/>
<path d="M7.93376 37C5.59539 37 3.40736 35.9967 1.90412 34.2372C1.88742 34.2207 1.82059 34.1551 1.77048 34.0729C1.51994 33.7769 1.30279 33.4809 1.13577 33.1684C0.400852 32.0009 0 30.6195 0 29.1724C0 26.7715 1.08572 24.5515 2.97312 23.0715C3.30717 22.8084 3.67458 22.5618 4.07545 22.348C5.22793 21.7067 6.58084 21.3449 7.93376 21.3449C9.87127 21.3449 11.6585 22.0027 13.0949 23.236C13.2787 23.3675 13.5291 23.6142 13.7462 23.8444C15.0992 25.308 15.8508 27.1827 15.8508 29.1395C15.8508 30.5702 15.4499 31.968 14.6983 33.1684C14.3309 33.7933 13.8799 34.336 13.3788 34.7635C13.2786 34.8622 13.1784 34.961 13.0615 35.0433C11.742 36.3095 9.88797 37 7.93376 37ZM3.72466 32.5435C3.77477 32.5929 3.85828 32.6749 3.92509 32.79C4.84374 33.8589 6.34701 34.5498 7.93376 34.5498C9.25327 34.5498 10.5227 34.0729 11.4914 33.2178C11.5415 33.152 11.6083 33.0862 11.6919 33.0369C12.0259 32.7573 12.3099 32.3954 12.5771 31.9678C13.0949 31.1292 13.3788 30.192 13.3788 29.2053C13.3788 27.8733 12.8611 26.5742 11.9257 25.5711C11.8088 25.4395 11.6918 25.308 11.5415 25.2093C9.73759 23.68 7.26562 23.4499 5.29471 24.5517C5.02746 24.6997 4.79364 24.8475 4.57651 25.0284C3.2737 26.048 2.52212 27.5609 2.52212 29.2053C2.52212 30.1755 2.78931 31.1295 3.30709 31.9517C3.44071 32.1819 3.57433 32.3627 3.72466 32.5271C3.70796 32.5271 3.72466 32.5271 3.72466 32.5435Z" fill="#8C8B8B"/>
<path d="M10.4387 30.3893H5.44459C4.75978 30.3893 4.19189 29.8302 4.19189 29.156C4.19189 28.4818 4.75978 27.9227 5.44459 27.9227H10.4387C11.1235 27.9227 11.6914 28.4818 11.6914 29.156C11.6914 29.8302 11.1235 30.3893 10.4387 30.3893Z" fill="#8C8B8B"/>
<path d="M7.93361 32.9053C7.2488 32.9053 6.68091 32.3462 6.68091 31.672V26.7551C6.68091 26.0809 7.2488 25.5218 7.93361 25.5218C8.61842 25.5218 9.18631 26.0809 9.18631 26.7551V31.672C9.18631 32.3627 8.61842 32.9053 7.93361 32.9053Z" fill="#8C8B8B"/>
</svg>
